<svg width="41" height="40" viewBox="0 0 41 40" fill="none" xmlns="http://www.w3.org/2000/svg">
<path d="M25.45 37.9166H15.45C6.39999 37.9166 2.53333 34.0499 2.53333 24.9999V14.9999C2.53333 5.94992 6.39999 2.08325 15.45 2.08325H18.7833C19.4667 2.08325 20.0333 2.64992 20.0333 3.33325C20.0333 4.01659 19.4667 4.58325 18.7833 4.58325H15.45C7.76666 4.58325 5.03333 7.31659 5.03333 14.9999V24.9999C5.03333 32.6833 7.76666 35.4166 15.45 35.4166H25.45C33.1333 35.4166 35.8667 32.6833 35.8667 24.9999V21.6666C35.8667 20.9833 36.4333 20.4166 37.1167 20.4166C37.8 20.4166 38.3667 20.9833 38.3667 21.6666V24.9999C38.3667 34.0499 34.5167 37.9166 25.45 37.9166Z" fill="#2E2E2E"/>
<path d="M21.8 25.4001C21.55 25.4001 21.3167 25.3334 21.1 25.1834C20.75 24.9501 20.55 24.5667 20.55 24.1501C20.55 23.9667 20.5334 23.7667 20.5 23.5667C20.3834 22.6834 19.9834 21.9001 19.3167 21.2167C18.6334 20.5334 17.8 20.1001 16.8834 19.9834C16.75 19.9667 16.5334 19.9501 16.3334 19.9667C15.9167 20.0001 15.5 19.8167 15.25 19.4834C15 19.1501 14.9334 18.7001 15.0667 18.3001C15.2667 17.7334 15.5834 17.2001 15.95 16.7834L18 14.2167C21.5667 9.76672 28.75 4.43339 34.05 2.31672C35.2667 1.85006 36.55 2.11672 37.4334 3.00006C38.35 3.91672 38.6167 5.21672 38.1334 6.40006C36.0167 11.6834 30.6834 18.8834 26.25 22.4334L23.6334 24.5334C23.1167 24.9001 22.7 25.1501 22.2667 25.3167C22.1167 25.3667 21.95 25.4001 21.8 25.4001ZM18.3667 17.7834C19.3834 18.1167 20.3 18.6834 21.0834 19.4501C21.85 20.2167 22.4 21.1001 22.7167 22.0501L24.6834 20.4667C28.8334 17.1334 33.8334 10.4001 35.8167 5.45006C35.95 5.13339 35.8 4.90006 35.6667 4.75006C35.5834 4.66672 35.35 4.48339 34.9667 4.63339C30.0334 6.61672 23.3 11.6167 19.9667 15.7667L18.3667 17.7834Z" fill="#2E2E2E"/>
<path d="M13.3334 31.2501C12.2667 31.2501 11.25 30.8334 10.4834 30.0667C9.60003 29.1834 9.16669 27.9667 9.31669 26.7167L9.66669 23.4501C10.0334 20.0667 12.7834 17.5667 16.2334 17.5001C16.5 17.4834 16.8334 17.5001 17.15 17.5167C18.6667 17.7167 20.0167 18.3834 21.0834 19.4667C22.15 20.5334 22.8 21.8001 22.9834 23.2334C23.0334 23.5501 23.05 23.8667 23.05 24.1667C23.05 25.9834 22.35 27.7001 21.0667 28.9834C20.0167 30.0334 18.65 30.6834 17.1 30.8834L13.8 31.2334C13.6334 31.2501 13.4834 31.2501 13.3334 31.2501ZM16.5 19.9834C16.45 19.9834 16.3834 19.9834 16.3334 19.9834C14.4167 20.0334 12.4 21.3167 12.15 23.7167L11.8 27.0001C11.75 27.4834 11.9167 27.9667 12.25 28.3001C12.5834 28.6334 13.05 28.8001 13.5167 28.7501L16.8 28.4001C17.7667 28.2834 18.6334 27.8667 19.2834 27.2167C20.0834 26.4001 20.5334 25.3334 20.5334 24.1667C20.5334 23.9834 20.5167 23.7834 20.4834 23.5834C20.3667 22.7001 19.9667 21.9167 19.3 21.2334C18.6167 20.5501 17.7834 20.1167 16.8667 20.0001C16.7834 19.9834 16.65 19.9834 16.5 19.9834Z" fill="#2E2E2E"/>
<path d="M26.8667 21.2166C26.1833 21.2166 25.6167 20.6499 25.6167 19.9666C25.6167 17.1832 23.35 14.8999 20.55 14.8999C19.8667 14.8999 19.3 14.3332 19.3 13.6499C19.3 12.9666 19.8667 12.3999 20.55 12.3999C24.7167 12.3999 28.1167 15.7832 28.1167 19.9666C28.1167 20.6499 27.5667 21.2166 26.8667 21.2166Z" fill="#2E2E2E"/>
</svg>
