<svg width="41" height="40" viewBox="0 0 41 40" fill="none" xmlns="http://www.w3.org/2000/svg">
<path d="M13 17.5C14.3807 17.5 15.5 16.3807 15.5 15C15.5 13.6193 14.3807 12.5 13 12.5C11.6193 12.5 10.5 13.6193 10.5 15C10.5 16.3807 11.6193 17.5 13 17.5Z" fill="#2E2E2E"/>
<path d="M20.5 13.75C21.8807 13.75 23 12.6307 23 11.25C23 9.86929 21.8807 8.75 20.5 8.75C19.1193 8.75 18 9.86929 18 11.25C18 12.6307 19.1193 13.75 20.5 13.75Z" fill="#2E2E2E"/>
<path d="M28 17.5C29.3807 17.5 30.5 16.3807 30.5 15C30.5 13.6193 29.3807 12.5 28 12.5C26.6193 12.5 25.5 13.6193 25.5 15C25.5 16.3807 26.6193 17.5 28 17.5Z" fill="#2E2E2E"/>
<path d="M29.25 25C30.6307 25 31.75 23.8807 31.75 22.5C31.75 21.1193 30.6307 20 29.25 20C27.8693 20 26.75 21.1193 26.75 22.5C26.75 23.8807 27.8693 25 29.25 25Z" fill="#2E2E2E"/>
<path d="M24.25 31.25C25.6307 31.25 26.75 30.1307 26.75 28.75C26.75 27.3693 25.6307 26.25 24.25 26.25C22.8693 26.25 21.75 27.3693 21.75 28.75C21.75 30.1307 22.8693 31.25 24.25 31.25Z" fill="#2E2E2E"/>
<path d="M21.175 2.50008C18.8207 2.40921 16.4723 2.79466 14.2706 3.63334C12.0688 4.47202 10.0591 5.74665 8.36194 7.38082C6.66474 9.01498 5.315 10.975 4.39363 13.1435C3.47227 15.3119 2.99825 17.644 3 20.0001C2.99994 20.9267 3.21363 21.8409 3.62444 22.6715C4.03525 23.5021 4.63211 24.2268 5.36862 24.7892C6.10513 25.3515 6.96142 25.7364 7.87092 25.9139C8.78041 26.0914 9.7186 26.0567 10.6125 25.8126L12.0125 25.4251C12.5694 25.2731 13.1539 25.2517 13.7205 25.3626C14.287 25.4735 14.8203 25.7137 15.2788 26.0646C15.7373 26.4154 16.1086 26.8673 16.3638 27.3852C16.619 27.903 16.7511 28.4728 16.75 29.0501V33.7501C16.75 34.7446 17.1451 35.6985 17.8484 36.4017C18.5516 37.105 19.5054 37.5001 20.5 37.5001C22.8561 37.5018 25.1882 37.0278 27.3566 36.1065C29.5251 35.1851 31.4851 33.8354 33.1193 32.1382C34.7534 30.441 36.0281 28.4312 36.8667 26.2295C37.7054 24.0278 38.0909 21.6794 38 19.3251C37.8186 14.9209 35.9878 10.746 32.8709 7.62915C29.7541 4.5123 25.5792 2.68145 21.175 2.50008ZM31.3125 30.3876C29.9168 31.8489 28.2386 33.0113 26.3799 33.8042C24.5212 34.5971 22.5208 35.004 20.5 35.0001C20.1685 35.0001 19.8505 34.8684 19.6161 34.634C19.3817 34.3995 19.25 34.0816 19.25 33.7501V29.0501C19.25 27.3925 18.5915 25.8028 17.4194 24.6307C16.2473 23.4586 14.6576 22.8001 13 22.8001C12.4383 22.8011 11.8793 22.8767 11.3375 23.0251L9.9375 23.4126C9.41461 23.5527 8.86645 23.5705 8.33556 23.4647C7.80466 23.3588 7.30528 23.132 6.87615 22.802C6.44701 22.472 6.09965 22.0476 5.861 21.5617C5.62235 21.0758 5.49883 20.5414 5.5 20.0001C5.49845 17.9798 5.90502 15.9801 6.69531 14.1208C7.48561 12.2615 8.64333 10.5811 10.099 9.18024C11.5547 7.7794 13.2784 6.68706 15.1667 5.96875C17.0549 5.25043 19.0688 4.92096 21.0875 5.00008C24.8465 5.19586 28.3997 6.77717 31.0613 9.43878C33.7229 12.1004 35.3042 15.6536 35.5 19.4126C35.586 21.4325 35.2591 23.4488 34.539 25.3381C33.819 27.2273 32.7211 28.9498 31.3125 30.4001V30.3876Z" fill="#2E2E2E"/>
</svg>
