<svg width="40" height="40" viewBox="0 0 40 40" fill="none" xmlns="http://www.w3.org/2000/svg">
<path d="M25.3334 10H4.00002C3.25335 10 2.66669 9.45 2.66669 8.75C2.66669 8.05 3.25335 7.5 4.00002 7.5H25.3334C26.08 7.5 26.6667 8.05 26.6667 8.75C26.6667 9.45 26.08 10 25.3334 10ZM36 17.5H20C19.2534 17.5 18.6667 16.95 18.6667 16.25C18.6667 15.55 19.2534 15 20 15H36C36.7467 15 37.3334 15.55 37.3334 16.25C37.3334 16.95 36.7467 17.5 36 17.5Z" fill="#2E2E2E"/>
<path d="M14.6666 35C13.92 35 13.3333 34.45 13.3333 33.75V8.875C13.3333 8.175 13.92 7.625 14.6666 7.625C15.4133 7.625 16 8.175 16 8.875V33.75C16 34.45 15.4133 35 14.6666 35ZM28 35C27.2533 35 26.6666 34.45 26.6666 33.75V16.375C26.6666 15.675 27.2533 15.125 28 15.125C28.7466 15.125 29.3333 15.675 29.3333 16.375V33.75C29.3333 34.45 28.7466 35 28 35Z" fill="#2E2E2E"/>
</svg>
