<svg width="40" height="40" viewBox="0 0 40 40" fill="none" xmlns="http://www.w3.org/2000/svg">
<path d="M5.83334 34.1666C7.21667 35.5499 9.45 35.5499 10.8333 34.1666L32.5 12.4999C33.8833 11.1166 33.8833 8.88324 32.5 7.4999C31.1167 6.11657 28.8833 6.11657 27.5 7.4999L5.83334 29.1666C4.45 30.5499 4.45 32.7832 5.83334 34.1666Z" stroke="#2E2E2E" stroke-width="1.5" stroke-linecap="round" stroke-linejoin="round"/>
<path d="M30.0167 14.9834L25.0167 9.9834" stroke="#2E2E2E" stroke-width="1.5" stroke-linecap="round" stroke-linejoin="round"/>
<path d="M14.1667 4.06659L16.6667 3.33325L15.9334 5.83325L16.6667 8.33325L14.1667 7.59992L11.6667 8.33325L12.4 5.83325L11.6667 3.33325L14.1667 4.06659Z" stroke="#2E2E2E" stroke-linecap="round" stroke-linejoin="round"/>
<path d="M7.5 14.0666L10 13.3333L9.26667 15.8333L10 18.3333L7.5 17.5999L5 18.3333L5.73333 15.8333L5 13.3333L7.5 14.0666Z" stroke="#2E2E2E" stroke-linecap="round" stroke-linejoin="round"/>
<path d="M32.5 22.4001L35 21.6667L34.2667 24.1667L35 26.6667L32.5 25.9334L30 26.6667L30.7333 24.1667L30 21.6667L32.5 22.4001Z" stroke="#2E2E2E" stroke-linecap="round" stroke-linejoin="round"/>
</svg>
