<svg width="40" height="40" viewBox="0 0 40 40" fill="none" xmlns="http://www.w3.org/2000/svg">
<path fill-rule="evenodd" clip-rule="evenodd" d="M16 16C16.5304 16 17.0391 15.7893 17.4142 15.4142C17.7893 15.0391 18 14.5304 18 14C18 13.4696 17.7893 12.9609 17.4142 12.5858C17.0391 12.2107 16.5304 12 16 12C15.4696 12 14.9609 12.2107 14.5858 12.5858C14.2107 12.9609 14 13.4696 14 14C14 14.5304 14.2107 15.0391 14.5858 15.4142C14.9609 15.7893 15.4696 16 16 16ZM16 18C17.0609 18 18.0783 17.5786 18.8284 16.8284C19.5786 16.0783 20 15.0609 20 14C20 12.9391 19.5786 11.9217 18.8284 11.1716C18.0783 10.4214 17.0609 10 16 10C14.9391 10 13.9217 10.4214 13.1716 11.1716C12.4214 11.9217 12 12.9391 12 14C12 15.0609 12.4214 16.0783 13.1716 16.8284C13.9217 17.5786 14.9391 18 16 18Z" fill="#2E2E2E"/>
<path d="M15 21.356L11.18 26.5H15L18.82 28.5H11.18C10.8096 28.4996 10.4465 28.3964 10.1314 28.2018C9.81616 28.0073 9.5612 27.729 9.39489 27.398C9.22857 27.067 9.15744 26.6964 9.18941 26.3274C9.22139 25.9583 9.35521 25.6054 9.57598 25.308L13.394 20.164C13.58 19.9133 13.8222 19.7097 14.1011 19.5694C14.3799 19.429 14.6878 19.356 15 19.356C15.3122 19.356 15.62 19.429 15.8989 19.5694C16.1778 19.7097 16.4199 19.9133 16.606 20.164L18.516 22.736L16.91 23.928L15 21.356Z" fill="#2E2E2E"/>
<path fill-rule="evenodd" clip-rule="evenodd" d="M28.514 26.5L22.5 19.556L16.486 26.5H28.514ZM24.012 18.246C23.8242 18.0292 23.592 17.8553 23.3312 17.7361C23.0703 17.6169 22.7868 17.5552 22.5 17.5552C22.2131 17.5552 21.9297 17.6169 21.6688 17.7361C21.4079 17.8553 21.1757 18.0292 20.988 18.246L14.974 25.19C14.7228 25.4798 14.5602 25.8357 14.5056 26.2153C14.451 26.5949 14.5067 26.9822 14.666 27.331C14.8254 27.6799 15.0817 27.9755 15.4043 28.1828C15.727 28.3901 16.1025 28.5002 16.486 28.5H28.514C28.8975 28.5002 29.2729 28.3901 29.5956 28.1828C29.9183 27.9755 30.1746 27.6799 30.3339 27.331C30.4932 26.9822 30.5489 26.5949 30.4943 26.2153C30.4397 25.8357 30.2772 25.4798 30.026 25.19L24.012 18.246Z" fill="#2E2E2E"/>
<path fill-rule="evenodd" clip-rule="evenodd" d="M34 5H6C5.73478 5 5.48043 5.10536 5.29289 5.29289C5.10536 5.48043 5 5.73478 5 6V34C5 34.2652 5.10536 34.5196 5.29289 34.7071C5.48043 34.8946 5.73478 35 6 35H34C34.2652 35 34.5196 34.8946 34.7071 34.7071C34.8946 34.5196 35 34.2652 35 34V6C35 5.73478 34.8946 5.48043 34.7071 5.29289C34.5196 5.10536 34.2652 5 34 5ZM6 3C5.20435 3 4.44129 3.31607 3.87868 3.87868C3.31607 4.44129 3 5.20435 3 6V34C3 34.7956 3.31607 35.5587 3.87868 36.1213C4.44129 36.6839 5.20435 37 6 37H34C34.7956 37 35.5587 36.6839 36.1213 36.1213C36.6839 35.5587 37 34.7956 37 34V6C37 5.20435 36.6839 4.44129 36.1213 3.87868C35.5587 3.31607 34.7956 3 34 3H6Z" fill="#2E2E2E"/>
</svg>
