<svg width="41" height="40" viewBox="0 0 41 40" fill="none" xmlns="http://www.w3.org/2000/svg">
<path d="M23.9 37.9167H15.9166C13.2166 37.9167 10.7666 36.8667 8.99997 34.9334C7.2333 33.0167 6.38331 30.4834 6.61664 27.8001C7.18331 20.9667 13.2166 15.4167 20.0833 15.4167C26.4 15.4167 32.3666 20.4834 33.4166 26.7001C33.9166 29.6667 33.1833 32.4667 31.3833 34.6001C29.55 36.7334 26.9 37.9167 23.9 37.9167ZM20.0666 17.9167C14.4833 17.9167 9.56664 22.4501 9.09997 28.0167C8.9333 30.0001 9.54997 31.8501 10.8333 33.2501C12.1166 34.6501 13.9166 35.4167 15.9 35.4167H23.8833C26.1333 35.4167 28.1166 34.5501 29.4333 33.0001C30.75 31.4501 31.2833 29.3501 30.9166 27.1167C30.0833 22.0501 25.2166 17.9167 20.0666 17.9167Z" fill="#2E2E2E"/>
<path d="M17.95 13.7501C14.9667 13.7501 12.5333 11.3167 12.5333 8.33341C12.5333 5.35008 14.9667 2.91675 17.95 2.91675C20.9333 2.91675 23.3667 5.35008 23.3667 8.33341C23.3667 11.3167 20.95 13.7501 17.95 13.7501ZM17.95 5.41675C16.35 5.41675 15.0333 6.73341 15.0333 8.33341C15.0333 9.93341 16.35 11.2501 17.95 11.2501C19.55 11.2501 20.8667 9.93341 20.8667 8.33341C20.8667 6.73341 19.5667 5.41675 17.95 5.41675Z" fill="#2E2E2E"/>
<path d="M29.3333 15.7499C26.8 15.7499 24.75 13.6999 24.75 11.1666C24.75 8.63325 26.8 6.58325 29.3333 6.58325C31.8667 6.58325 33.9167 8.63325 33.9167 11.1666C33.9167 13.6999 31.8667 15.7499 29.3333 15.7499ZM29.3333 9.08325C28.1833 9.08325 27.25 10.0166 27.25 11.1666C27.25 12.3166 28.1833 13.2499 29.3333 13.2499C30.4833 13.2499 31.4167 12.3166 31.4167 11.1666C31.4167 10.0166 30.4833 9.08325 29.3333 9.08325Z" fill="#2E2E2E"/>
<path d="M35.5 22.4167C33.4333 22.4167 31.75 20.7334 31.75 18.6667C31.75 16.6001 33.4333 14.9167 35.5 14.9167C37.5667 14.9167 39.25 16.6001 39.25 18.6667C39.25 20.7334 37.5667 22.4167 35.5 22.4167ZM35.5 17.4167C34.8167 17.4167 34.25 17.9834 34.25 18.6667C34.25 19.3501 34.8167 19.9167 35.5 19.9167C36.1833 19.9167 36.75 19.3501 36.75 18.6667C36.75 17.9834 36.1833 17.4167 35.5 17.4167Z" fill="#2E2E2E"/>
<path d="M7.11666 19.0834C4.58333 19.0834 2.53333 17.0334 2.53333 14.5001C2.53333 11.9667 4.58333 9.91675 7.11666 9.91675C9.64999 9.91675 11.7 11.9667 11.7 14.5001C11.7 17.0334 9.64999 19.0834 7.11666 19.0834ZM7.11666 12.4167C5.96666 12.4167 5.03333 13.3501 5.03333 14.5001C5.03333 15.6501 5.96666 16.5834 7.11666 16.5834C8.26666 16.5834 9.19999 15.6501 9.19999 14.5001C9.19999 13.3501 8.26666 12.4167 7.11666 12.4167Z" fill="#2E2E2E"/>
</svg>
