<svg width="40" height="40" viewBox="0 0 40 40" fill="none" xmlns="http://www.w3.org/2000/svg">
<path d="M11.1859 9.60469C11.103 9.35574 10.9438 9.1392 10.731 8.98575C10.5181 8.8323 10.2624 8.74973 9.99997 8.74973C9.73757 8.74973 9.48183 8.8323 9.26898 8.98575C9.05612 9.1392 8.89696 9.35574 8.81403 9.60469L2.56403 28.3547C2.50139 28.5426 2.4843 28.7427 2.51417 28.9385C2.54405 29.1343 2.62002 29.3202 2.73584 29.4809C2.85166 29.6416 3.00401 29.7725 3.18033 29.8627C3.35665 29.953 3.5519 30 3.74997 30H16.25C16.448 30 16.6433 29.953 16.8196 29.8627C16.9959 29.7725 17.1483 29.6416 17.2641 29.4809C17.3799 29.3202 17.4559 29.1343 17.4858 28.9385C17.5156 28.7427 17.4985 28.5426 17.4359 28.3547L11.1859 9.60469ZM5.48435 27.5L9.99997 13.9531L14.5156 27.5H5.48435ZM32.5 11.875C32.5 10.268 32.0234 8.69714 31.1307 7.361C30.2379 6.02485 28.9689 4.98344 27.4843 4.36848C25.9996 3.75352 24.366 3.59262 22.7899 3.90612C21.2138 4.21963 19.766 4.99346 18.6297 6.12976C17.4934 7.26606 16.7196 8.7138 16.4061 10.2899C16.0926 11.866 16.2535 13.4997 16.8685 14.9843C17.4834 16.469 18.5248 17.7379 19.861 18.6307C21.1971 19.5235 22.768 20 24.375 20C26.5291 19.9975 28.5943 19.1407 30.1175 17.6175C31.6407 16.0943 32.4975 14.0291 32.5 11.875ZM18.75 11.875C18.75 10.7625 19.0799 9.67495 19.698 8.74992C20.316 7.82489 21.1945 7.10392 22.2224 6.67818C23.2502 6.25244 24.3812 6.14104 25.4724 6.35809C26.5635 6.57513 27.5658 7.11086 28.3524 7.89753C29.1391 8.6842 29.6748 9.68648 29.8919 10.7776C30.1089 11.8688 29.9975 12.9998 29.5718 14.0276C29.146 15.0554 28.4251 15.9339 27.5001 16.552C26.575 17.1701 25.4875 17.5 24.375 17.5C22.8831 17.5 21.4524 16.9074 20.3975 15.8525C19.3426 14.7976 18.75 13.3668 18.75 11.875ZM35 22.5H21.25C20.9184 22.5 20.6005 22.6317 20.3661 22.8661C20.1317 23.1005 20 23.4185 20 23.75V32.5C20 32.8315 20.1317 33.1495 20.3661 33.3839C20.6005 33.6183 20.9184 33.75 21.25 33.75H35C35.3315 33.75 35.6494 33.6183 35.8839 33.3839C36.1183 33.1495 36.25 32.8315 36.25 32.5V23.75C36.25 23.4185 36.1183 23.1005 35.8839 22.8661C35.6494 22.6317 35.3315 22.5 35 22.5ZM33.75 31.25H22.5V25H33.75V31.25Z" fill="#2E2E2E"/>
</svg>
